:SAMPLES-PER-SECOND 30
:FRAME-RANGE 1-668
:FULLY-SPECIFIED
:DEGREES
272
root  2.34395 39.5606 31.977 -172.874 20.5534 178.25
RightUpLeg  -13.5826 -0.0348416 -9.74433
RightLeg  16.8519 -1.24335 -0.626332
RightFoot  -9.13077 -0.256276 10.0336
RightToes  5.38607e-012 1.2921e-014 -6.02303e-014
Spine  -6.94743 -2.6457 -2.04806
Spine1  14.7558 -1.55885 -4.0454
HEad  -8.45669 -19.7367 6.46965
LeftShoulder1  2.63782 -5.242 -24.9459
LeftArm  -3.21972 -4.24926 -43.7157
LeftForeArm  34.0558 2.93706 -12.1173
LeftHand  -0.0411141 4.72925 3.25438
RightShoulder  2.69928 3.87564 31.7631
RightArm  -25.6964 5.79274 50.8543
RightForeArm  69.9153 3.88452 4.57756
RightHand  -0.0758885 -4.64946 -9.10509
LeftUpLeg  -15.671 4.80594 3.13214
LeftLeg  12.9838 21.7079 6.6944
LeftFoot  -0.204749 0.763155 -7.80853
LeftToes  -6.11857e-011 5.00151e-011 -2.22593e-011
273
root  2.90114 39.5479 32.1217 -172.922 20.0586 178.651
RightUpLeg  -13.4764 -1.71257 -8.31381
RightLeg  17.4857 -0.0964075 -0.237878
RightFoot  -9.72917 -0.192558 8.95989
RightToes  5.38607e-012 1.2921e-014 -6.02303e-014
Spine  -7.26524 -2.81224 -1.45541
Spine1  14.7739 -1.99432 -3.37076
HEad  -6.90192 -19.4318 5.7884
LeftShoulder1  2.63658 -5.1961 -25.105
LeftArm  -4.30165 -4.03645 -43.9478
LeftForeArm  33.7912 1.31807 -11.6243
LeftHand  -0.0492527 4.42735 3.41533
RightShoulder  2.62422 3.60721 32.1355
RightArm  -24.6577 5.76656 49.3618
RightForeArm  68.885 6.62301 5.56639
RightHand  -0.0991351 -4.19588 -8.00821
LeftUpLeg  -15.7144 5.04932 4.33408
LeftLeg  13.3356 20.9981 6.94473
LeftFoot  0.28236 0.876205 -8.61521
LeftToes  -6.11857e-011 5.00151e-011 -2.22593e-011
274
root  3.42332 39.5495 32.273 -172.782 19.3923 178.984
RightUpLeg  -13.3762 -2.86852 -7.0059
RightLeg  17.6887 0.366657 -0.0742141
RightFoot  -10.1497 -0.152048 7.96771
RightToes  5.38607e-012 1.2921e-014 -6.02303e-014
Spine  -7.87666 -3.02998 -1.00753
Spine1  14.9516 -2.49231 -2.53656
HEad  -5.06357 -19.6063 5.41905
LeftShoulder1  2.63975 -5.26783 -24.8722
LeftArm  -5.20458 -3.55684 -44.4133
LeftForeArm  33.7231 -0.705977 -11.2387
LeftHand  -0.0548461 4.27083 3.61793
RightShoulder  2.57437 3.49043 32.0514
RightArm  -23.304 6.54382 47.9515
RightForeArm  67.2419 9.38514 6.3416
RightHand  -0.113814 -3.67085 -6.64614
LeftUpLeg  -15.8897 5.16114 5.50191
LeftLeg  13.3082 20.3697 6.83518
LeftFoot  0.961296 0.952669 -8.88208
LeftToes  -6.11857e-011 5.00151e-011 -2.22593e-011
275
root  3.8984 39.5779 32.413 -172.845 18.6924 179.318
RightUpLeg  -12.8808 -3.53713 -5.77042
RightLeg  17.4547 0.266904 -0.112111
RightFoot  -10.3204 -0.13382 7.1331
RightToes  5.38607e-012 1.2921e-014 -6.02303e-014
Spine  -8.37635 -3.24337 -0.491305
Spine1  15.3279 -2.92329 -1.93125
HEad  -3.4266 -20.3805 5.56505
LeftShoulder1  2.65736 -5.35904 -24.7457
LeftArm  -5.68006 -3.23439 -44.5935
LeftForeArm  34.0078 -2.84241 -11.0209
LeftHand  -0.0634287 4.00497 3.76411
RightShoulder  2.53154 3.41774 31.8202
RightArm  -20.5306 8.37772 46.4536
RightForeArm  64.0184 12.2533 6.4168
RightHand  -0.112966 -3.36996 -5.65035
LeftUpLeg  -15.7489 4.9493 6.55814
LeftLeg  13.0132 19.9962 6.76905
LeftFoot  1.66808 0.993704 -8.79284
LeftToes  -6.11857e-011 5.00151e-011 -2.22593e-011
276
root  4.31533 39.6253 32.5576 -173.111 18.3304 179.451
RightUpLeg  -12.2542 -4.56746 -4.87662
RightLeg  16.9948 0.868865 0.0919884
RightFoot  -10.3021 -0.126624 6.23421
RightToes  5.38607e-012 1.2921e-014 -6.02303e-014
Spine  -8.47963 -3.30677 -0.121356
Spine1  15.4327 -3.09501 -1.65325
HEad  -1.80364 -21.6059 5.9471
LeftShoulder1  2.70361 -5.43953 -25.0043
LeftArm  -5.39421 -3.22911 -44.3417
LeftForeArm  34.3246 -4.6325 -10.8891
LeftHand  -0.0703297 3.78545 3.83117
RightShoulder  2.55819 3.61383 31.1335
RightArm  -17.9472 10.8953 44.8539
RightForeArm  59.8557 14.3779 6.04954
RightHand  -0.115354 -3.45932 -6.04551
LeftUpLeg  -15.4782 4.5975 7.23572
LeftLeg  12.768 20.2861 6.94382
LeftFoot  2.55844 0.965286 -8.03812
LeftToes  -6.11857e-011 5.00151e-011 -2.22593e-011
277
root  4.68259 39.6991 32.6788 -173.461 18.0652 179.3
RightUpLeg  -11.5606 -4.82727 -4.3858
RightLeg  16.3569 0.783893 0.0619773
RightFoot  -10.132 -0.127166 5.52119
RightToes  5.38607e-012 1.2921e-014 -6.02303e-014
Spine  -8.69183 -3.34244 0.0206006
Spine1  15.6048 -3.1277 -1.6697
HEad  0.230928 -23.0684 6.40362
LeftShoulder1  2.7349 -5.54147 -25.0019
LeftArm  -4.96885 -3.23111 -44.3146
LeftForeArm  34.9257 -5.78161 -10.75
LeftHand  -0.0691782 4.06306 4.29091
RightShoulder  2.53569 3.68777 30.41
RightArm  -16.9575 14.0971 43.259
RightForeArm  56.8621 15.657 5.57946
RightHand  -0.124159 -3.58488 -7.03667
LeftUpLeg  -15.1587 4.66903 7.35043
LeftLeg  12.476 21.0318 7.02738
LeftFoot  3.18115 0.774206 -6.22483
LeftToes  -6.11857e-011 5.00151e-011 -2.22593e-011
278
root  4.98385 39.7721 32.7825 -173.77 17.7991 178.957
RightUpLeg  -11.0254 -5.27014 -4.21785
RightLeg  15.7959 0.886755 0.113804
RightFoot  -9.9503 -0.127646 4.94306
RightToes  5.38607e-012 1.2921e-014 -6.02303e-014
Spine  -8.9527 -3.40816 0.0248198
Spine1  15.6488 -3.16444 -1.73481
HEad  2.52583 -24.1461 6.26056
LeftShoulder1  2.75043 -5.61621 -24.9131
LeftArm  -4.85319 -3.07024 -44.2721
LeftForeArm  35.5219 -6.40238 -10.6113
LeftHand  -0.0707522 4.00484 4.13414
RightShoulder  2.47894 3.73329 29.3464
RightArm  -16.7656 17.5358 41.9879
RightForeArm  55.274 16.6952 5.07426
RightHand  -0.110537 -4.15392 -8.88408
LeftUpLeg  -14.9778 5.12528 7.07114
LeftLeg  12.3851 21.0624 6.6628
LeftFoot  3.02638 0.535583 -4.39451
LeftToes  -6.11857e-011 5.00151e-011 -2.22593e-011
279
root  5.21397 39.8156 32.8583 -174.145 17.4985 178.588
RightUpLeg  -10.5662 -5.74039 -4.22607
RightLeg  15.5641 1.00818 0.18268
RightFoot  -9.96224 -0.121416 4.46377
RightToes  5.38607e-012 1.2921e-014 -6.02303e-014
Spine  -9.02124 -3.46571 0.106272
Spine1  15.5386 -3.21929 -1.71919
HEad  4.30249 -24.7904 5.93233
LeftShoulder1  2.78389 -5.74131 -24.8543
LeftArm  -4.9048 -2.63427 -44.1272
LeftForeArm  36.2004 -6.65336 -10.5231
LeftHand  -0.0680201 4.11947 4.26005
RightShoulder  2.49512 4.07639 27.8918
RightArm  -15.9247 20.7602 40.5588
RightForeArm  52.6195 18.1629 4.45061
RightHand  -0.0899778 -4.58749 -10.6544
LeftUpLeg  -14.8189 5.53364 6.6262
LeftLeg  12.9417 18.3398 5.61415
LeftFoot  1.32672 0.518493 -4.74296
LeftToes  -6.11857e-011 5.00151e-011 -2.22593e-011
280
root  5.37557 39.8364 32.8968 -174.508 17.1086 178.327
RightUpLeg  -10.1538 -6.03037 -4.25536
RightLeg  15.551 0.921263 0.183592
RightFoot  -10.048 -0.115449 4.18129
RightToes  5.38607e-012 1.2921e-014 -6.02303e-014
Spine  -9.15276 -3.4876 0.529372
Spine1  15.5795 -3.22017 -1.81748
HEad  5.46591 -25.1144 5.81943
LeftShoulder1  2.81087 -5.81232 -24.9134
LeftArm  -5.09481 -2.34389 -43.7787
LeftForeArm  36.511 -6.31292 -10.5612
LeftHand  -0.0648547 4.09931 4.25854
RightShoulder  2.39307 4.03863 26.6281
RightArm  -15.2916 24.1997 39.1648
RightForeArm  49.456 19.6222 3.84666
RightHand  -0.0792431 -4.79327 -12.3648
LeftUpLeg  -14.6965 5.04024 5.98084
LeftLeg  14.0217 15.5957 4.99678
LeftFoot  -0.754553 0.513852 -5.49593
LeftToes  -6.11857e-011 5.00151e-011 -2.22593e-011
281
root  5.50077 39.8386 32.9302 -174.774 16.9709 178.139
RightUpLeg  -9.98641 -6.10309 -4.25734
RightLeg  15.7477 0.839767 0.164493
RightFoot  -10.1887 -0.109631 4.01985
RightToes  5.38607e-012 1.2921e-014 -6.02303e-014
Spine  -9.20803 -3.31457 1.03493
Spine1  15.4818 -3.0152 -1.93788
HEad  6.44807 -25.3508 5.77604
LeftShoulder1  2.81431 -5.80642 -24.9738
LeftArm  -5.54247 -2.00105 -43.3975
LeftForeArm  36.8095 -5.59828 -10.6171
LeftHand  -0.0644683 4.08068 4.0641
RightShoulder  2.39071 4.33984 25.258
RightArm  -15.6283 27.117 37.3662
RightForeArm  45.8513 20.8966 3.38871
RightHand  -0.0812682 -4.83255 -13.8917
LeftUpLeg  -14.6815 4.30626 5.34126
LeftLeg  15.5182 13.964 4.81171
LeftFoot  -2.01211 0.470198 -5.61299
LeftToes  -6.11857e-011 5.00151e-011 -2.22593e-011
